# xmcd
#
# Track frame offsets: 
#        150
#        18082
#        35960
#
# Disc length: 716 seconds
#
# Revision: 1
# Processed by: cddbd v1.5.2PL0 Copyright (c) Steve Scherf et al.
# Submitted via: ExactAudioCopy v1.3
#
DISCID=1d02ca03
DTITLE=Joe Lynn Turner - Challenge Them All
DYEAR=2013
DGENRE=Hard Rock
TTITLE0=Challenge Them All
TTITLE1=Challenge Them All (Remix)
TTITLE2=Challenge Them All (Instrumental)
EXTD=
EXTT0=
EXTT1=
EXTT2=
PLAYORDER=
